PathFileType	4	(X/Y/Z)	D:\Research_projects\MuscleProsody\BulkSports2Dtrack\RetrackedSports2D\p1_sample60_cam3\p1_sample60_cam3_Sports2D\p1_sample60_cam3_Sports2D_px_person00.trc
DataRate	CameraRate	NumFrames	NumMarkers	Units	OrigDataRate	OrigDataStartFrame	OrigNumFrames
60	60	12	22	m	60	682	780
Frame#	Time	Hip			RHip			RKnee			RAnkle			RBigToe			RSmallToe			RHeel			LHip			LKnee			LAnkle			LBigToe			LSmallToe			LHeel			Neck			Head			Nose			RShoulder			RElbow			RWrist			LShoulder			LElbow			LWrist		
		X1	Y1	Z1	X2	Y2	Z2	X3	Y3	Z3	X4	Y4	Z4	X5	Y5	Z5	X6	Y6	Z6	X7	Y7	Z7	X8	Y8	Z8	X9	Y9	Z9	X10	Y10	Z10	X11	Y11	Z11	X12	Y12	Z12	X13	Y13	Z13	X14	Y14	Z14	X15	Y15	Z15	X16	Y16	Z16	X17	Y17	Z17	X18	Y18	Z18	X19	Y19	Z19	X20	Y20	Z20	X21	Y21	Z21	X22	Y22	Z22
682	11.366666666666667	229.8757920373124	549.2171983337747	0.0	204.21306615947952	548.021480218193	0.0	203.6235222312012	666.6284465057647	0.0	220.34546372088528	769.2096544373546	0.0	182.5886767695478	810.4726809640814	0.0	180.93904988109452	798.106467321683	0.0	233.90839033959088	786.1542155776561	0.0	253.88828404518222	552.2990403347515	0.0	249.3948628903928	672.4730194140194	0.0	256.2231585121812	789.0828282153873	0.0	223.31381193179342	829.7436435781522	0.0	242.25001124121013	835.0949872370742	0.0	269.2849340529834	802.9623358808141	0.0	227.60069907278287	358.1699472896764	0.0	191.34701092771357	271.0889346297114	0.0	180.59863930943487	328.7048266957441	0.0	196.25013850497615	393.33795450055663	0.0	161.04809504590307	457.27625541606335	0.0	97.52326967502752	472.0410105950682	0.0	281.9765347588803	386.72644156785867	0.0	305.39064667816564	478.5914481798158	0.0	244.0859352059963	541.2394508875124	0.0
683	11.383333333333333	229.65895056708737	549.1338757466674	0.0	204.08507110629836	547.8949471279689	0.0	203.43347571243257	666.5076422730255	0.0	220.24851632996982	769.4674606754822	0.0	182.43154954848873	810.5530104744082	0.0	180.9427584982068	798.1365336059072	0.0	234.06466047616135	786.4319305360303	0.0	253.79916688628256	552.1994272917389	0.0	249.1518706140841	672.448890125761	0.0	256.15375131800187	789.1635405163101	0.0	223.00741487295994	829.9441909179382	0.0	241.93217902871663	835.2115215556148	0.0	269.3891014557377	803.0866656810467	0.0	227.60972848486543	357.9588987066505	0.0	191.59207988641117	271.12577586552834	0.0	180.81356333598083	328.5360561571701	0.0	196.37894034983864	393.38096888763874	0.0	162.5993071846086	458.27821268107573	0.0	103.09727533306952	474.71220818212635	0.0	282.11704921714556	386.9311588806005	0.0	304.8723174541209	479.06160250253885	0.0	243.02076643521835	541.1962560699496	0.0
684	11.4	229.40049093811254	549.0521908225767	0.0	203.95817146552145	547.7741857937679	0.0	203.25037642774794	666.3749576126575	0.0	220.149748523504	769.7556441270021	0.0	182.26274706062827	810.6440372137495	0.0	180.94155103176757	798.198734999552	0.0	234.18203719616884	786.7351102631429	0.0	253.67372489735362	552.0685749916645	0.0	248.89458580584338	672.3930527961897	0.0	256.0693384346519	789.2794885849933	0.0	222.69216948211664	830.136474330235	0.0	241.61013443698013	835.2999995254588	0.0	269.5037484321668	803.2123275484331	0.0	227.58773921251856	357.74651262402506	0.0	191.8466041012879	271.16920781350893	0.0	180.9887431303122	328.33891335975835	0.0	196.47608751271932	393.458910182007	0.0	164.26165242696064	459.4003337841236	0.0	108.94633761556884	477.8963336998232	0.0	282.2553161985058	387.12360280438446	0.0	304.3770514461441	479.5219369270748	0.0	242.02839441737157	541.2534991750898	0.0
685	11.416666666666666	229.10160000736627	548.9714751744234	0.0	203.84288119038058	547.6606002003439	0.0	203.08343714627514	666.2282628430125	0.0	220.05671457075772	770.0686461060042	0.0	182.08585633586463	810.747140663233	0.0	180.9370732832459	798.3014030898785	0.0	234.25020893154857	787.0593128008024	0.0	253.50585269436547	551.9054884695007	0.0	248.6301453172812	672.3058803347286	0.0	255.97439387032185	789.4355193801792	0.0	222.3796821861671	830.309050715716	0.0	241.29765662701877	835.3531330699823	0.0	269.6274307039674	803.3327452958797	0.0	227.53070829547588	357.54389306023955	0.0	192.1032012069803	271.21706771939193	0.0	181.111905531271	328.11799150998957	0.0	196.5424768921857	393.5624984078037	0.0	166.02056259228155	460.63964227454585	0.0	114.91718049487304	481.54570191584065	0.0	282.3752354770852	387.28921855722825	0.0	303.90456057426104	479.95717093022967	0.0	241.14009439872206	541.4395539018368	0.0
686	11.433333333333334	228.76679943152953	548.8905177992298	0.0	203.74758165703713	547.5571075176075	0.0	202.94317381846878	666.0692672681098	0.0	219.976976701155	770.3985451078698	0.0	181.90889459311825	810.8654463504195	0.0	180.93151207455125	798.4540927358097	0.0	234.26088426128692	787.3990980790029	0.0	253.2903785404958	551.7107633552855	0.0	248.36716342437543	672.1908051246982	0.0	255.87799125320458	789.6313836446907	0.0	222.08465427325478	830.450098966224	0.0	241.01069319160968	835.3651850375273	0.0	269.7608536770974	803.4461021527735	0.0	227.43889294119202	357.3610322006152	0.0	192.35222402943245	271.2659572364428	0.0	181.1739767291595	327.87931975468746	0.0	196.57985238619023	393.67786257049164	0.0	167.85276666147817	461.9877296181334	0.0	120.8581224344125	485.5994258416364	0.0	282.46451379683657	387.4146788253368	0.0	303.45023543848106	480.35934811981275	0.0	240.38679219655538	541.7825625774898	0.0
687	11.45	228.4040349042924	548.808396480244	0.0	203.6773445641636	547.4690164493943	0.0	202.8381046644711	665.9062819487632	0.0	219.91565110963091	770.7355914533665	0.0	181.74282716054853	811.001606200392	0.0	180.92868241860708	798.6648108618185	0.0	234.21227103019905	787.7461995318797	0.0	253.02220737885017	551.4890261189583	0.0	248.1144638063451	672.056090089249	0.0	255.78885154425024	789.8611162600366	0.0	221.82203457188194	830.5510121961968	0.0	240.76181149412378	835.332529009739	0.0	269.90823195966306	803.5506675949472	0.0	227.3164085343386	357.2080081078506	0.0	192.5831656315404	271.3106598699628	0.0	181.17110763184692	327.6337405119215	0.0	196.58815775083656	393.7904131630877	0.0	169.72308733453062	463.43359143231055	0.0	126.62127962156744	489.99061941703627	0.0	282.5135594497317	387.49053222972873	0.0	303.0060921015552	480.72844455365225	0.0	239.79778993346468	542.3106690475148	0.0
688	11.466666666666667	228.02215373649557	548.7221252304374	0.0	203.63459443053893	547.4004254104167	0.0	202.77321663899983	665.7537589412811	0.0	219.87541289012688	771.0733121032226	0.0	181.59938533968858	811.155406839182	0.0	180.93430404437845	798.9367558674644	0.0	234.11494523548146	788.0929679645932	0.0	252.6962828325885	551.2472960542818	0.0	247.88112877135464	671.916285662383	0.0	255.7117243512564	790.1167338148599	0.0	221.6033499704634	830.6086525967403	0.0	240.55516708685758	835.2551276006606	0.0	270.0746373818995	803.6422258970263	0.0	227.1709430168473	357.0968281778664	0.0	192.78649264481535	271.345906704457	0.0	181.1056222594691	327.39787099628774	0.0	196.56497162955418	393.8885148789597	0.0	171.58426188342253	464.9646334013812	0.0	132.06856769406747	494.65404178140614	0.0	282.51507912661657	387.5121295421417	0.0	302.56191319706863	481.0702362023517	0.0	239.4019164300579	543.0515759525706	0.0
689	11.483333333333333	227.62759055876344	548.6255528346258	0.0	203.61768416672322	547.349856744076	0.0	202.7515094731015	665.6309495791163	0.0	219.85780258191926	771.4109318875317	0.0	181.49116547438413	811.323302370281	0.0	180.95415562927016	799.267614109966	0.0	233.99022890570598	788.436201912372	0.0	252.30876913844858	550.9901752999722	0.0	247.6759413634432	671.7898762557126	0.0	255.64789642014063	790.3908163882135	0.0	221.4343407673844	830.622750145649	0.0	240.38527699536854	835.1365729650449	0.0	270.26103275860595	803.7201951013491	0.0	227.01295978252313	357.03973122500554	0.0	192.955234453837	271.3682615180874	0.0	180.9852434787002	327.18885847074955	0.0	196.50799181642725	393.9640085313297	0.0	173.38404770956691	466.56413423448663	0.0	137.08806150182093	499.5328707961826	0.0	282.465609419367	387.4800258610495	0.0	302.1055144584091	481.39438134748053	0.0	239.22854617422615	544.032244542939	0.0
690	11.5	227.22429326930794	548.5118379980624	0.0	203.62027491848602	547.3104287486817	0.0	202.7762095223061	665.5584781627133	0.0	219.86475467210983	771.7503156083967	0.0	181.42960064587186	811.499073485493	0.0	180.992539437427	799.6495869075031	0.0	233.86315796583676	788.7769161736065	0.0	251.86059590730918	550.7177832524213	0.0	247.50601189100183	671.6951150541155	0.0	255.59712091734738	790.6769435740255	0.0	221.31510711000564	830.5922013536599	0.0	240.2404578005524	834.9823048020703	0.0	270.46219378989184	803.7909645867841	0.0	226.852514723462	357.04457480579447	0.0	193.0867403015198	271.37521972093595	0.0	180.8212816072011	327.0179309495592	0.0	196.41701155555737	394.01328413888774	0.0	175.0719957761256	468.20647528919227	0.0	141.6068365079262	504.57594273510017	0.0	282.3662035230359	387.3990516965698	0.0	301.6223936233154	481.7128375650837	0.0	239.30653234897113	545.2773626486099	0.0
691	11.516666666666666	226.81579202598542	548.3759828198165	0.0	203.6342511810556	547.2740374662864	0.0	202.85105970848784	665.5527785516167	0.0	219.8991578256353	772.092078714881	0.0	181.42113886847443	811.6752867839087	0.0	181.05318123550617	800.0694792371089	0.0	233.755593203908	789.1169652707899	0.0	251.35946825927573	550.4286804227164	0.0	247.37656231046512	671.6479584381768	0.0	255.55833678214526	790.9701939467787	0.0	221.2424580366031	830.5152595506253	0.0	240.10895060730635	834.7975955434747	0.0	270.66709288770727	803.8609727190302	0.0	226.69603375195408	357.11127307656494	0.0	193.18618928119471	271.36153612156056	0.0	180.6268385495097	326.8880426079367	0.0	196.29376210217262	394.03959344287813	0.0	176.60159926155328	469.85607671225745	0.0	145.59002951779004	509.7265585685067	0.0	282.2210833741406	387.27651642349156	0.0	301.0953057154193	482.03829005132684	0.0	239.66196238174288	546.805111837616	0.0
692	11.533333333333333	226.40726623803022	548.2162410116629	0.0	203.65194999192659	547.2341361341756	0.0	202.97845035323962	665.6220149026454	0.0	219.96357767331153	772.4331894541356	0.0	181.46705453951972	811.8442601567637	0.0	181.14029072024275	800.5098402441918	0.0	233.68292453613068	789.4544083268994	0.0	250.81903490676459	550.1232523990476	0.0	247.2911129904699	671.6615734115406	0.0	255.52948342457347	791.2675624896715	0.0	221.21236365594737	830.3917828748773	0.0	239.98333273533336	834.5870666647538	0.0	270.8601244788083	803.9301120997433	0.0	226.546637657867	357.23228050708383	0.0	193.26868805855807	271.31779989826106	0.0	180.41519395672213	326.79575605466545	0.0	196.1419293402647	394.0513353848466	0.0	177.93496585200347	471.4745365712145	0.0	149.0329088592672	514.9190554683477	0.0	282.03629739161977	387.1215113336042	0.0	300.5053262344447	482.3822490772169	0.0	240.31541200689168	548.6227951707779	0.0
693	11.55	226.00737057417388	548.035840669993	0.0	203.66560951555147	547.185086565266	0.0	203.15727632310336	665.7644585189414	0.0	220.0582408871104	772.7655176592201	0.0	181.56527824775588	811.9976493659726	0.0	181.25692665643936	800.950530986936	0.0	233.65463114319502	789.7808117812488	0.0	250.25914914778744	549.8034889452728	0.0	247.25090117514648	671.7441639500662	0.0	255.50839386029946	791.5672635048252	0.0	221.2202372468965	830.225209732698	0.0	239.86061845027686	834.3569624016696	0.0	271.02675208240817	803.9950680140429	0.0	226.40632095499478	357.39580143978424	0.0	193.35458293283097	271.23408397751587	0.0	180.1979350661935	326.7341669233372	0.0	195.96675298878523	394.0563889438199	0.0	179.0500930662128	473.02943750583177	0.0	151.95286791910064	520.0872554342658	0.0	281.82037947942325	386.9454889178025	0.0	299.8350930755285	482.7535142363707	0.0	241.27976142120642	550.7247464644422	0.0
